<svg width="300" height="154" viewBox="0 0 300 154" fill="none" xmlns="http://www.w3.org/2000/svg">
<path d="M35.6104 53.11L61.3606 25.0023L117.889 5.34226L140.745 10.5645L147.753 1.04163L171.523 28.2278C171.523 28.2278 219.519 41.744 220.128 42.2048C220.738 42.6656 227.137 49.1165 227.137 49.1165L242.984 52.0348L263.096 47.8878L286.561 47.7342L299.055 63.2472L291.284 73.6916L267.058 67.087L226.375 82.1393L193.616 61.4041L151.106 76.7635L132.06 62.7864L113.471 74.4596L78.7306 42.8192L35.6104 53.11Z" fill="#3C7EFF"/>
<path d="M28.9062 61.2504L40.3338 85.8255L57.8562 97.8058L70.0456 49.1165L28.9062 61.2504Z" fill="#3C7EFF"/>
<path d="M75.6833 46.1982L62.5796 97.6522L109.052 76.6099L75.6833 46.1982Z" fill="#3C7EFF"/>
<path d="M66.3888 102.106L110.271 82.2928L130.079 132.979L95.7959 129.446L66.3888 102.106Z" fill="#3C7EFF"/>
<path d="M115.604 79.0673L131.45 68.1622L145.163 83.2144L191.636 68.1622L223.785 85.9791L264.01 77.0706L288.237 87.0542L223.785 97.6522L180.056 92.1228L147.906 101.031L133.888 127.449L115.604 79.0673Z" fill="#3C7EFF"/>
<path d="M23.8781 64.0151C23.5733 65.0903 0.870453 104.41 0.870453 104.41L35.7628 89.3581L23.8781 64.0151Z" fill="#3C7EFF"/>
<path d="M0.108612 115.93L26.4683 99.6489L13.9741 125.76L0.108612 115.93Z" fill="#3C7EFF"/>
<path d="M37.4388 94.4268L25.5541 118.08L52.6757 105.332L37.4388 94.4268Z" fill="#3C7EFF"/>
<path d="M31.4965 124.838L52.6757 115.469L50.9996 150.335L31.4965 124.838Z" fill="#3C7EFF"/>
<path d="M59.2275 103.642L57.7038 151.256L90.0059 130.521" fill="#3C7EFF"/>
<path d="M65.3222 152.332L95.4912 133.9L131.45 138.201L65.3222 152.332Z" fill="#3C7EFF"/>
<path d="M50.0854 9.0285L59.9894 20.7016L83.1493 12.4076L50.0854 9.0285Z" fill="#3C7EFF"/>
<path d="M53.7422 25.4631L30.5823 51.574L12.1457 34.2179L53.7422 25.4631Z" fill="#3C7EFF"/>
</svg>
