<svg width="300" height="153" viewBox="0 0 300 153" fill="none" xmlns="http://www.w3.org/2000/svg">
<path d="M147.82 2.62875L170.772 28.7624L170.967 28.9853L171.253 29.0654L171.523 28.1025C171.253 29.0654 171.253 29.0655 171.253 29.0656L171.255 29.066L171.262 29.0679L171.288 29.0752L171.391 29.104L171.792 29.2166L173.316 29.6444C174.63 30.0132 176.507 30.5406 178.761 31.1749C183.27 32.4435 189.288 34.1397 195.324 35.8501C201.362 37.5607 207.416 39.2852 211.999 40.6104C214.291 41.2732 216.212 41.8353 217.577 42.2456C218.261 42.451 218.8 42.6169 219.176 42.7377C219.365 42.7984 219.505 42.8453 219.598 42.8787C219.599 42.879 219.599 42.8792 219.6 42.8794C219.612 42.8895 219.624 42.9011 219.639 42.9141C219.711 42.9792 219.805 43.066 219.919 43.1733C220.147 43.3873 220.442 43.6714 220.784 44.0032C221.466 44.6663 222.32 45.5093 223.157 46.34C223.994 47.1703 224.812 47.9864 225.421 48.5952C225.725 48.8995 225.977 49.1519 226.153 49.3282L226.357 49.5325L226.411 49.5861L226.424 49.5999L226.428 49.6033L226.429 49.6042L226.429 49.6044L227.137 48.8986L226.429 49.6044L226.65 49.8258L226.957 49.8822L242.803 52.7875L242.994 52.8226L243.185 52.7835L263.201 48.6746L286.086 48.5255L297.789 62.9908L290.89 72.2214L267.32 65.8242L267.012 65.7406L266.712 65.8509L226.492 80.6661L194.149 60.2855L193.737 60.0255L193.278 60.1906L151.267 75.3021L132.649 61.7003L132.103 61.3012L131.529 61.6598L113.582 72.8802L79.4023 41.8884L79.0121 41.5345L78.4995 41.6563L38.5601 51.1456L61.9259 25.7539L117.946 6.35716L140.523 11.4927L141.16 11.6377L141.549 11.1121L147.82 2.62875ZM219.682 42.9101C219.704 42.9193 219.699 42.9186 219.678 42.9085C219.679 42.9091 219.681 42.9097 219.682 42.9101Z" stroke="white" stroke-width="2"/>
<path d="M41.1236 84.7726L30.3049 61.6103L68.6493 50.3509L57.2355 95.7396L41.1236 84.7726Z" stroke="white" stroke-width="2"/>
<path d="M107.25 75.9851L64.0635 95.4529L76.2407 47.8492L107.25 75.9851Z" stroke="white" stroke-width="2"/>
<path d="M96.2301 127.911L68.177 101.946L109.724 83.2702L128.548 131.226L96.2301 127.911Z" stroke="white" stroke-width="2"/>
<path d="M144.425 83.5201L144.859 83.9938L145.47 83.7967L191.531 68.944L223.302 86.473L223.632 86.6552L224.001 86.574L263.92 77.7724L284.588 86.2518L223.767 96.2085L180.18 90.7217L179.982 90.6968L179.79 90.7499L147.64 99.6188L147.226 99.7331L147.023 100.112L134.041 124.47L116.818 79.0968L131.299 69.1755L144.425 83.5201Z" stroke="white" stroke-width="2"/>
<path d="M34.417 88.4511L3.24881 101.837C3.80694 100.873 4.4986 99.6789 5.28809 98.3144C7.42143 94.6275 10.2692 89.7003 13.1265 84.7394C15.9837 79.7789 18.8512 74.7833 21.024 70.9604C22.1101 69.0493 23.024 67.4286 23.6766 66.251C23.7292 66.1561 23.7802 66.0639 23.8295 65.9746L34.417 88.4511Z" stroke="white" stroke-width="2"/>
<path d="M13.5849 123.703L1.92424 115.473L24.0924 101.841L13.5849 123.703Z" stroke="white" stroke-width="2"/>
<path d="M50.7002 104.685L27.7501 115.424L37.8069 95.4977L50.7002 104.685Z" stroke="white" stroke-width="2"/>
<path d="M50.1322 146.897L33.066 124.686L51.5988 116.523L50.1322 146.897Z" stroke="white" stroke-width="2"/>
<mask id="path-10-inside-1_42_1105" fill="white">
<path d="M59.2275 103.182L57.7038 150.585L90.0059 129.942"/>
</mask>
<path d="M57.7038 150.585L55.7049 150.521L55.5829 154.314L58.7808 152.27L57.7038 150.585ZM57.2285 103.118L55.7049 150.521L59.7028 150.649L61.2265 103.247L57.2285 103.118ZM58.7808 152.27L91.0829 131.627L88.9289 128.257L56.6268 148.9L58.7808 152.27Z" fill="white" mask="url(#path-10-inside-1_42_1105)"/>
<path d="M95.7158 134.34L125.334 137.867L70.8669 149.454L95.7158 134.34Z" stroke="white" stroke-width="2"/>
<path d="M78.6393 12.8989L60.3031 19.4363L52.462 10.2355L78.6393 12.8989Z" stroke="white" stroke-width="2"/>
<path d="M14.2318 34.6507L50.9763 26.9514L30.5178 49.9142L14.2318 34.6507Z" stroke="white" stroke-width="2"/>
</svg>
