<svg width="40" height="40" viewBox="0 0 40 40" fill="none" xmlns="http://www.w3.org/2000/svg">
<g clip-path="url(#clip0_848_8)">
<path d="M40 20C40 8.95431 31.0457 0 20 0C8.95431 0 0 8.95431 0 20C0 31.0457 8.95431 40 20 40C31.0457 40 40 31.0457 40 20Z" fill="url(#paint0_linear_848_8)"/>
<path d="M29.0275 14.0267C27.3761 12.7467 25.3945 12.1067 23.3028 12L22.9725 12.32C24.844 12.7467 26.4955 13.6 28.0367 14.7733C26.1652 13.8133 24.0733 13.1733 21.8716 12.96C21.2111 12.8533 20.6605 12.8533 20 12.8533C19.3395 12.8533 18.7889 12.8533 18.1284 12.96C15.9267 13.1733 13.8348 13.8133 11.9633 14.7733C13.5045 13.6 15.156 12.7467 17.0275 12.32L16.6972 12C14.6055 12.1067 12.6238 12.7467 10.9725 14.0267C9.10092 17.44 8.11009 21.28 8 25.2267C9.65135 26.9333 11.9633 28 14.3853 28C14.3853 28 15.156 27.1467 15.7064 26.4C14.2752 26.08 12.9541 25.3333 12.0734 24.16C12.844 24.5867 13.6147 25.0133 14.3853 25.3333C15.3761 25.76 16.3671 25.9733 17.3579 26.1867C18.2385 26.2933 19.1193 26.4 20 26.4C20.8807 26.4 21.7615 26.2933 22.6421 26.1867C23.6329 25.9733 24.6239 25.76 25.6147 25.3333C26.3853 25.0133 27.156 24.5867 27.9267 24.16C27.0459 25.3333 25.7248 26.08 24.2936 26.4C24.844 27.1467 25.6147 28 25.6147 28C28.0367 28 30.3487 26.9333 32 25.2267C31.8899 21.28 30.8991 17.44 29.0275 14.0267ZM16.3671 23.3067C15.2661 23.3067 14.2752 22.3467 14.2752 21.1733C14.2752 20 15.2661 19.04 16.3671 19.04C17.4679 19.04 18.4588 20 18.4588 21.1733C18.4588 22.3467 17.4679 23.3067 16.3671 23.3067ZM23.6329 23.3067C22.5321 23.3067 21.5412 22.3467 21.5412 21.1733C21.5412 20 22.5321 19.04 23.6329 19.04C24.7339 19.04 25.7248 20 25.7248 21.1733C25.7248 22.3467 24.7339 23.3067 23.6329 23.3067Z" fill="white"/>
</g>
<defs>
<linearGradient id="paint0_linear_848_8" x1="20" y1="0" x2="20" y2="40" gradientUnits="userSpaceOnUse">
<stop stop-color="#E741BC"/>
<stop offset="1" stop-color="#3C7EFF"/>
</linearGradient>
<clipPath id="clip0_848_8">
<rect width="40" height="40" fill="white"/>
</clipPath>
</defs>
</svg>
