<svg width="40" height="40" viewBox="0 0 40 40" fill="none" xmlns="http://www.w3.org/2000/svg">
<circle cx="20" cy="20" r="20" fill="white"/>
<path d="M22.2921 25.4924L26.32 19.0158C26.3332 18.9948 26.3442 18.9728 26.3528 18.95C27.0483 17.8157 27.4156 16.52 27.4156 15.1972C27.4156 11.2287 24.1869 8 20.2184 8C16.2499 8 13.021 11.2287 13.021 15.1972C13.021 16.5203 13.3887 17.8165 14.0848 18.9516C14.0929 18.9715 14.1023 18.9908 14.1136 19.0096L17.9969 25.5086C14.9824 25.9347 13 27.1742 13 28.6779C13 30.541 16.1661 32 20.2077 32C24.2493 32 27.4153 30.5407 27.4153 28.6779C27.4156 27.1672 25.3408 25.9 22.2921 25.4924ZM14.8083 18.5886C14.1662 17.5667 13.8269 16.394 13.8269 15.1972C13.8269 11.673 16.694 8.80596 20.2184 8.80596C23.7426 8.80596 26.6096 11.673 26.6096 15.1972C26.6096 16.3946 26.2703 17.5672 25.6285 18.5886C25.6151 18.6101 25.6041 18.6324 25.5952 18.6555L21.3398 25.4973C21.2758 25.5953 21.2632 25.6176 21.185 25.7461L20.1104 27.474L14.8443 18.6612C14.8349 18.6362 14.8228 18.6117 14.8083 18.5886ZM20.2079 31.194C16.4352 31.194 13.8062 29.8677 13.8062 28.6779C13.8062 27.5979 15.7862 26.5802 18.4493 26.2651L19.7577 28.4549C19.8299 28.5755 19.9594 28.6499 20.0999 28.651C20.101 28.651 20.1023 28.651 20.1034 28.651C20.2426 28.651 20.3721 28.579 20.4457 28.4608L21.8212 26.2492C24.5268 26.5423 26.6094 27.5858 26.6094 28.6779C26.6096 29.868 23.9806 31.194 20.2079 31.194Z" fill="#5B27AD"/>
<path d="M22.8249 15.197C22.8249 13.7541 21.6509 12.5801 20.208 12.5801C18.7651 12.5801 17.5911 13.7541 17.5911 15.197C17.5911 16.6399 18.7651 17.814 20.208 17.814C21.6509 17.814 22.8249 16.6399 22.8249 15.197ZM18.397 15.197C18.397 14.1984 19.2094 13.386 20.208 13.386C21.2066 13.386 22.019 14.1984 22.019 15.197C22.019 16.1956 21.2068 17.008 20.208 17.008C19.2092 17.008 18.397 16.1956 18.397 15.197Z" fill="#5B27AD"/>
</svg>
