<svg width="40" height="40" viewBox="0 0 40 40" fill="none" xmlns="http://www.w3.org/2000/svg">
<circle cx="20" cy="20" r="20" fill="white"/>

<path d="M40.9771 12.2743V12.2571C31.9586 12.2088 31.9315 12.1643 31.8971 12.1257V12.1257C31.8611 12.0878 31.8185 12.0568 31.7714 12.0343V12.0343C31.7252 12.0143 31.6759 12.0027 31.6257 12H8.4C8.34978 12.0027 8.30045 12.0143 8.25429 12.0343V12.0343C8.20716 12.0568 8.16455 12.0878 8.12857 12.1257V12.1257C8.08508 12.1676 8.05099 12.2182 8.02857 12.2743V12.2914C8.01268 12.3316 8.00304 12.374 8 12.4171V27.2743C8 27.3879 8.04515 27.4969 8.12553 27.5773C8.2059 27.6577 8.31491 27.7028 8.42857 27.7028H31.5714C31.6851 27.7028 31.7941 27.6577 31.8744 27.5773C31.9548 27.4969 32 27.3879 32 27.2743V12.4171C32.0006 12.3686 31.9929 12.3202 31.9771 12.2743V12.2743ZM31.1428 26.16L24.0743 19.8486L31.1428 13.3886V26.16ZM8.85714 13.3886L15.7143 19.6571L8.85714 26.0086V13.3886ZM23.1428 19.5257C23.1268 19.536 23.1115 19.5475 23.0971 19.56V19.5771L20 22.4086L9.53428 12.8457H30.4657L23.1428 19.5257ZM16.3514 20.2371L19.7143 23.3057C19.7928 23.376 19.8946 23.4148 20 23.4148C20.1054 23.4148 20.2071 23.376 20.2857 23.3057L23.4285 20.4286L30.6257 26.8457H9.21428L16.3514 20.2371Z" fill="#5B27AD"/>
</svg>
