<svg width="40" height="40" viewBox="0 0 40 40" fill="none" xmlns="http://www.w3.org/2000/svg">
<circle cx="20" cy="20" r="20" fill="white"/>
<path d="M19.0805 30.8837C20.3897 31.6268 21.6791 32 22.8803 32C23.8859 31.9997 24.8295 31.7379 25.6694 31.2125L28.7651 29.2769C28.8767 29.2072 28.9564 29.0957 28.9867 28.9661C29.017 28.8369 28.9949 28.7007 28.9261 28.5876L26.2428 24.1797C26.174 24.0668 26.0636 23.986 25.9362 23.9553C25.8077 23.9249 25.674 23.947 25.5627 24.0167L22.4436 25.968C21.964 26.2678 21.3488 26.3636 20.7569 26.2317C20.1651 26.0995 19.6598 25.7517 19.3706 25.2763L15.1314 18.3129C14.5185 17.3061 14.8274 15.9814 15.8201 15.3602C15.8201 15.3602 15.8204 15.3602 15.8204 15.3598L19.0577 13.3341C19.2899 13.1889 19.3617 12.8805 19.2185 12.6451L16.5348 8.23819C16.3915 8.00284 16.0869 7.92906 15.855 8.07495L12.6203 10.0986C9.01513 12.354 9.14161 18.2745 12.9286 24.4965C14.6647 27.3494 16.8497 29.6178 19.0805 30.8837ZM13.1397 10.9506L15.9538 9.19028L18.1187 12.7449L15.3017 14.5076C15.301 14.5079 15.3007 14.5082 15.3004 14.5086C13.8452 15.4202 13.392 17.3621 14.2909 18.8383L18.5301 25.8014C18.9586 26.5061 19.6931 27.0192 20.5448 27.2095C21.385 27.3961 22.2667 27.2549 22.9627 26.8196L25.6611 25.1314L27.8257 28.6867L25.1503 30.3596C23.1965 31.5814 21.0336 30.8436 19.5633 30.0094C17.4768 28.8249 15.4189 26.6804 13.7695 23.9703C10.2881 18.2505 10.0292 12.8965 13.1397 10.9506Z" fill="#5B27AD"/>
</svg>
